<svg xmlns="http://www.w3.org/2000/svg" version="1.1" xmlns:xlink="http://www.w3.org/1999/xlink" xmlns:svgjs="http://svgjs.dev/svgjs" width="1500" height="1122" viewBox="0 0 1500 1122"><g transform="matrix(1,0,0,1,-0.363557771961041,0.4542510121457326)"><svg viewBox="0 0 330 247" data-background-color="#ffffff" preserveAspectRatio="xMidYMid meet" height="1122" width="1500" xmlns="http://www.w3.org/2000/svg" xmlns:xlink="http://www.w3.org/1999/xlink"><g id="tight-bounds" transform="matrix(1,0,0,1,0.07998270983142675,-0.09999999999999432)"><svg viewBox="0 0 329.84003458033715 247.2" height="247.2" width="329.84003458033715"><g><svg viewBox="0 0 397.4975999999999 297.9062467205358" height="247.2" width="329.84003458033715"><g><rect width="397.4975999999999" height="9.124474873093954" x="0" y="163.71617708651164" fill="#8abe53" opacity="1" stroke-width="0" stroke="transparent" fill-opacity="1" class="rect-yte-0" data-fill-palette-color="secondary" rx="1%" id="yte-0" data-palette-color="#8abe53"></rect></g><g transform="matrix(1,0,0,1,0.9887999999999693,196.7267118368149)"><svg viewBox="0 0 395.52 101.17953488372092" height="101.17953488372092" width="395.52"><g id="textblocktransform"><svg viewBox="0 0 395.52 101.17953488372092" height="101.17953488372092" width="395.52" id="textblock"><g><svg viewBox="0 0 395.52 101.17953488372092" height="101.17953488372092" width="395.52"><g transform="matrix(1,0,0,1,0,0)"><svg width="395.52" viewBox="2.1499999999999995 -40.8 212.83 54.449999999999996" height="101.17953488372092" data-palette-color="#096a2e"><path d="M12-31.65L12-31.65 12-2.2 16.05-1.7Q16.25-0.95 16.05 0.15L16.05 0.15Q12.9 0 9.2 0L9.2 0Q6.5 0 2.3 0.1L2.3 0.1Q2-0.8 2.3-1.7L2.3-1.7 6.45-2.3Q6.65-4.2 6.65-8.15L6.65-8.15 6.65-37.6 2.6-38.1Q2.4-38.85 2.6-39.95L2.6-39.95Q5.35-39.75 9.45-39.75L9.45-39.75Q13.1-39.75 16.35-39.9L16.35-39.9Q16.65-39 16.35-38.1L16.35-38.1 12.2-37.5Q12-35.6 12-31.65ZM35.1-1.7L35.1-1.7Q38.4-1.7 40.32-4.9 42.25-8.1 42.25-14.55L42.25-14.55Q42.25-19.5 40.42-22.1 38.6-24.7 35.6-24.7L35.6-24.7Q31.2-24.7 28-20.45L28-20.45 28-4.9Q30.8-1.7 35.1-1.7ZM23.25 4.75L23.25-19.55Q23.25-22.9 23.1-24.25L23.1-24.25 19.15-24.75Q19-25.55 19.15-26.65L19.15-26.65Q22.65-26.9 27.75-27.7L27.75-27.7Q28.2-27.25 28.25-26.7L28.25-26.7Q28-24.95 28-23L28-23Q32.05-27.7 37.3-27.7L37.3-27.7Q41.7-27.7 44.62-24.05 47.55-20.4 47.55-14.4L47.55-14.4Q47.55-7.45 43.72-3.23 39.9 1 34.7 1L34.7 1Q31.05 1 28-1.35L28-1.35 28 10.9 33.05 11.65Q33.25 12.45 33.05 13.65L33.05 13.65Q29.9 13.5 26.1 13.5L26.1 13.5Q23.3 13.5 19.1 13.6L19.1 13.6Q18.8 12.6 19.1 11.65L19.1 11.65 23.05 11.1Q23.25 8.35 23.25 4.75L23.25 4.75ZM59.6-31.7L59.6-31.7 59.6-2.55 63.65-1.8Q63.85-1 63.65 0.2L63.65 0.2Q60.5 0.05 57.2 0.05L57.2 0.05Q54.9 0.05 50.7 0.15L50.7 0.15Q50.4-0.8 50.7-1.8L50.7-1.8 54.65-2.35Q54.85-5.1 54.85-8.7L54.85-8.7 54.85-37.35 50.75-37.85Q50.55-38.6 50.75-39.75L50.75-39.75Q54.2-40 59.35-40.8L59.35-40.8Q59.8-40.3 59.85-39.8L59.85-39.8Q59.6-38.5 59.6-31.7ZM71.44-6.65L71.44-6.65Q71.44-4.05 72.39-2.98 73.34-1.9 75.39-1.9L75.39-1.9Q76.89-1.9 78.72-2.83 80.54-3.75 82.09-5.5L82.09-5.5 82.09-13.3Q76.94-13 74.19-11.48 71.44-9.95 71.44-6.65ZM82.09-15.1L82.09-15.1 82.09-17.65Q82.09-21.9 81.12-23.83 80.14-25.75 77.89-25.75L77.89-25.75Q75.59-25.75 74.19-24.28 72.79-22.8 72.29-19.25L72.29-19.25Q70.69-18.9 69.94-18.9L69.94-18.9Q67.99-18.9 67.64-20.3L67.64-20.3Q67.64-23.7 70.59-25.7 73.54-27.7 77.94-27.7L77.94-27.7Q82.79-27.7 84.82-25.73 86.84-23.75 86.84-18.65L86.84-18.65 86.84-4.55Q86.84-3.3 86.99-2.4L86.99-2.4 90.94-1.9Q91.14-1.15 90.94 0L90.94 0Q87.39 0.15 83.39 0.7L83.39 0.7Q82.99 0.3 82.89-0.3L82.89-0.3 82.64-3.75Q78.49 1 73.39 1L73.39 1Q70.24 1 68.47-0.8 66.69-2.6 66.69-5.65L66.69-5.65Q66.69-10.25 70.87-12.6 75.04-14.95 82.09-15.1ZM93.99-39.95L93.99-39.95Q96.54-39.95 101.34-40.15 106.14-40.35 107.69-40.35L107.69-40.35 109.04-40.35Q115.59-40.35 118.79-37.68 121.99-35 121.99-30.65L121.99-30.65Q121.99-24.45 113.89-22.05L113.89-22.05 113.89-21.9Q118.59-21.2 121.32-18.23 124.04-15.25 124.04-11.1L124.04-11.1Q124.04-5.55 120.27-2.45 116.49 0.65 109.19 0.65L109.19 0.65Q107.19 0.65 102.72 0.33 98.24 0 95.59 0L95.59 0Q95.29 0 94.64 0.03 93.99 0.05 93.69 0.05L93.69 0.05Q93.39-0.85 93.69-1.75L93.69-1.75 97.84-2.3Q98.04-4.2 98.04-8.15L98.04-8.15 98.04-37.6 93.99-38.1Q93.79-38.85 93.99-39.95ZM107.39-20.3L107.39-20.3 103.39-20.3 103.39-2.2Q105.94-1.75 107.44-1.65L107.44-1.65Q113.49-1.65 115.79-3.93 118.09-6.2 118.09-11.05L118.09-11.05Q118.09-14.95 115.27-17.63 112.44-20.3 107.39-20.3ZM107.74-38.25L107.74-38.25Q105.24-38.25 103.59-37.9L103.59-37.9Q103.39-36 103.39-31.65L103.39-31.65 103.39-22.8 107.29-22.8Q111.94-22.8 114.07-24.7 116.19-26.6 116.19-30.35L116.19-30.35Q116.19-34.15 113.87-36.2 111.54-38.25 107.74-38.25ZM133.24-6.65L133.24-6.65Q133.24-4.05 134.19-2.98 135.14-1.9 137.19-1.9L137.19-1.9Q138.69-1.9 140.51-2.83 142.34-3.75 143.89-5.5L143.89-5.5 143.89-13.3Q138.74-13 135.99-11.48 133.24-9.95 133.24-6.65ZM143.89-15.1L143.89-15.1 143.89-17.65Q143.89-21.9 142.91-23.83 141.94-25.75 139.69-25.75L139.69-25.75Q137.39-25.75 135.99-24.28 134.59-22.8 134.09-19.25L134.09-19.25Q132.49-18.9 131.74-18.9L131.74-18.9Q129.79-18.9 129.44-20.3L129.44-20.3Q129.44-23.7 132.39-25.7 135.34-27.7 139.74-27.7L139.74-27.7Q144.59-27.7 146.61-25.73 148.64-23.75 148.64-18.65L148.64-18.65 148.64-4.55Q148.64-3.3 148.79-2.4L148.79-2.4 152.74-1.9Q152.94-1.15 152.74 0L152.74 0Q149.19 0.15 145.19 0.7L145.19 0.7Q144.79 0.3 144.69-0.3L144.69-0.3 144.44-3.75Q140.29 1 135.19 1L135.19 1Q132.04 1 130.26-0.8 128.49-2.6 128.49-5.65L128.49-5.65Q128.49-10.25 132.66-12.6 136.84-14.95 143.89-15.1ZM175.49-8.7L175.49-17.85Q175.49-21.7 174.46-23.25 173.44-24.8 171.03-24.8L171.03-24.8Q167.34-24.8 163.59-19.25L163.59-19.25 163.59-2.55 167.63-1.8Q167.84-1 167.63 0.2L167.63 0.2Q164.49 0.05 161.19 0.05L161.19 0.05Q158.88 0.05 154.69 0.15L154.69 0.15Q154.38-0.8 154.69-1.8L154.69-1.8 158.63-2.35Q158.84-5.1 158.84-8.7L158.84-8.7 158.84-22.4Q158.84-23.4 158.69-24.25L158.69-24.25 154.74-24.75Q154.53-25.5 154.74-26.65L154.74-26.65Q158.19-26.9 163.34-27.7L163.34-27.7Q163.78-27.2 163.84-26.7L163.84-26.7Q163.59-25.4 163.59-22.25L163.59-22.25Q167.53-27.7 172.49-27.7L172.49-27.7Q180.24-27.7 180.24-20.35L180.24-20.35 180.24-2.55 184.28-1.8Q184.49-1 184.28 0.2L184.28 0.2Q181.13 0.05 177.84 0.05L177.84 0.05Q175.53 0.05 171.34 0.15L171.34 0.15Q171.03-0.8 171.34-1.8L171.34-1.8 175.28-2.35Q175.49-5.1 175.49-8.7L175.49-8.7ZM205.53-2.3L195.38-14.4 205.83-24.5 202.53-24.9Q202.33-25.7 202.53-26.85L202.53-26.85Q205.28-26.65 207.68-26.65L207.68-26.65Q209.63-26.65 212.88-26.8L212.88-26.8Q213.18-25.9 212.88-24.9L212.88-24.9 208.93-24.2 200.08-15.9 210.98-2.85 214.88-1.85Q215.08-1.05 214.88 0.15L214.88 0.15Q211.73 0 208.58 0L208.58 0Q206.43 0 202.23 0.1L202.23 0.1Q201.93-0.9 202.23-1.85L202.23-1.85 205.53-2.3ZM194.83-31.7L194.83-31.7 194.83-2.55 198.88-1.8Q199.08-1 198.88 0.2L198.88 0.2Q195.73 0.05 192.48 0.05L192.48 0.05Q190.18 0.05 185.98 0.15L185.98 0.15Q185.68-0.8 185.98-1.8L185.98-1.8 189.93-2.35Q190.13-5.1 190.13-8.7L190.13-8.7 190.13-37.35 186.03-37.85Q185.83-38.6 186.03-39.75L186.03-39.75Q189.38-40 194.58-40.8L194.58-40.8Q195.03-40.3 195.08-39.8L195.08-39.8Q194.83-38.5 194.83-31.7Z" opacity="1" transform="matrix(1,0,0,1,0,0)" fill="#096a2e" class="wordmark-text-0" data-fill-palette-color="primary" id="text-0"></path></svg></g></svg></g></svg></g></svg></g><g transform="matrix(1,0,0,1,97.63247669107331,0)"><svg viewBox="0 0 202.2326466178533 139.83011720930233" height="139.83011720930233" width="202.2326466178533"><g><svg xmlns="http://www.w3.org/2000/svg" xmlns:xlink="http://www.w3.org/1999/xlink" version="1.1" x="8" y="0" viewBox="9.204 19.649 81.071 60.870999999999995" enable-background="new 0 0 100 100" xml:space="preserve" height="139.83011720930233" width="186.2326466178533" class="icon-icon-0" data-fill-palette-color="accent" id="icon-0"><path d="M85.941 73.486V68.453H82.441V44.108H87.775V35.687H82.441V31.354L49.739 19.649 17.038 31.355V35.688H11.703V44.109H17.038V68.454H13.538V73.487H9.204V80.52H90.275V73.487zM72.723 49.476V68.454H71.411V47.766H75.036V68.454H73.724V49.476zM61.966 49.476V68.454H60.653V47.766H64.278V68.454H62.966V49.476zM49.739 51.486A5.01 5.01 0 0 0 44.729 56.496V68.453H40.825V47.766H42.115V44.109H57.363V47.766H58.653V68.454H54.749V56.496A5.01 5.01 0 0 0 49.739 51.486M36.511 49.476V68.454H35.2V47.766H38.825V68.454H37.512V49.476zM25.754 49.476V68.454H24.442V47.766H28.067V68.454H26.755V49.476zM20.038 44.108H21.151V47.765H22.442V68.453H20.038zM29.358 44.108V45.765H23.151V44.108zM30.067 47.766H31.358V44.109H31.908V47.766H33.2V68.454H30.067zM40.115 44.108V45.765H33.908V44.108zM65.57 44.108V45.765H59.363V44.108zM66.278 47.766H67.57V44.109H68.12V47.766H69.411V68.454H66.278zM76.327 44.108V45.765H70.12V44.108zM77.036 47.766H78.327V44.109H79.441V68.454H77.036zM20.038 33.467L49.739 22.835 79.441 33.467V35.687H20.038zM14.703 41.108V38.687H84.775V41.108zM15.538 70.453H83.941V73.486H15.538zM88.275 78.52H11.204V75.487H88.275z" fill="#8abe53" data-fill-palette-color="accent"></path></svg></g></svg></g><g><rect width="0.8042473763975266" height="9.124474873093954" y="129.70564233620837" x="299.8651233089266" fill="#8abe53" data-fill-palette-color="secondary"></rect><rect width="0.8042473763975266" height="9.124474873093954" y="129.70564233620837" x="96.82822931467578" fill="#8abe53" data-fill-palette-color="secondary"></rect></g></svg></g><defs></defs></svg><rect width="329.84003458033715" height="247.2" fill="none" stroke="none" visibility="hidden"></rect></g></svg></g></svg>